#!OML:ASF E:\Mandelcareful walks\Project 1\Capture day 1\Session 1\Subject1.ASF
:FULLY-SPECIFIED
:DEGREES
323
root 5.39366 16.9417 -1.45329 -114.125 -85.9654 116.232
lowerback -5.13446 -0.721684 -3.14235
upperback 2.32665 -0.777065 0.748174
thorax 5.35315 -0.511069 2.46665
lowerneck -18.4681 -6.83475 -10.5071
upperneck 30.0323 -8.33398 3.57553
head 13.9372 -4.56115 1.68
rclavicle 1.20265e-014 7.15625e-015
rhumerus -27.2514 -8.33502 -81.0461
rradius 25.7914
rwrist -5.21457
rhand -9.81435 -30.9081
rfingers 7.12502
rthumb 16.1624 -60.2542
lclavicle 1.20265e-014 7.15625e-015
lhumerus -27.1608 9.49016 88.652
lradius 24.286
lwrist 5.31116
lhand -19.1283 -12.3083
lfingers 7.12502
lthumb 7.18133 17.5498
rfemur 1.38181 -3.8441 12.1154
rtibia 10.323
rfoot -13.9534 -18.8039
rtoes 1.72808
lfemur -3.34628 0.395595 -16.1865
ltibia 19.6281
lfoot -16.6695 15.613
ltoes -0.0328303
324
root 5.40169 16.9372 -1.42867 -115.406 -85.9622 117.45
lowerback -5.25055 -0.678871 -3.01781
upperback 2.65824 -0.726453 0.768139
thorax 5.76281 -0.494246 2.42037
lowerneck -18.892 -6.8057 -10.0496
upperneck 29.8393 -8.25452 3.28172
head 13.8953 -4.49479 1.49311
rclavicle -4.62174e-015 4.77083e-015
rhumerus -26.5672 -8.67878 -80.9816
rradius 25.4563
rwrist -4.95121
rhand -8.71665 -31.1311
rfingers 7.12502
rthumb 17.2192 -60.3882
lclavicle -4.62174e-015 4.77083e-015
lhumerus -26.5509 9.40395 88.6782
lradius 24.1442
lwrist 5.42011
lhand -19.0003 -12.5208
lfingers 7.12502
lthumb 7.30484 17.3331
rfemur 1.43443 -3.90852 12.0429
rtibia 10.2834
rfoot -13.8807 -18.6199
rtoes 2.14334
lfemur -3.57266 0.863729 -16.1756
ltibia 20.1526
lfoot -16.8478 15.1422
ltoes 0.471487
325
root 5.41236 16.9352 -1.40285 -118.079 -86.0512 120.111
lowerback -5.00596 -0.63616 -2.79418
upperback 2.64901 -0.697995 0.842642
thorax 5.60858 -0.471105 2.37675
lowerneck -18.8129 -6.71455 -9.90828
upperneck 29.7365 -8.15933 3.25302
head 13.816 -4.44155 1.48009
rclavicle 3.32964e-015 7.95139e-016
rhumerus -26.4505 -8.81727 -80.8369
rradius 25.3856
rwrist -4.75251
rhand -8.49588 -31.589
rfingers 7.12502
rthumb 17.4317 -60.8274
lclavicle 3.32964e-015 7.95139e-016
lhumerus -26.4363 9.19137 88.6503
lradius 24.0331
lwrist 5.54338
lhand -18.97 -12.6863
lfingers 7.12502
lthumb 7.33409 17.1665
rfemur 1.43387 -3.73013 12.1534
rtibia 10.2018
rfoot -13.863 -18.7389
rtoes 2.03283
lfemur -3.84341 1.27235 -16.0202
ltibia 20.6455
lfoot -17.0261 14.7541
ltoes 1.16657
326
root 5.41471 16.9334 -1.37217 -119.89 -86.1004 121.834
lowerback -4.64804 -0.674275 -2.66105
upperback 2.52835 -0.775336 0.974311
thorax 5.28206 -0.500903 2.43439
lowerneck -18.633 -6.58763 -10.0346
upperneck 29.8483 -7.98724 3.29541
head 13.8208 -4.38612 1.55381
rclavicle -1.51573e-014 -7.95139e-016
rhumerus -26.5854 -8.67242 -80.613
rradius 25.291
rwrist -4.68279
rhand -8.81819 -31.4737
rfingers 7.12502
rthumb 17.1214 -60.7393
lclavicle -1.51573e-014 -7.95139e-016
lhumerus -26.7006 9.23333 88.6459
lradius 24.0864
lwrist 5.65175
lhand -19.118 -12.7736
lfingers 7.12502
lthumb 7.19124 17.0842
rfemur 1.56085 -3.59417 12.1599
rtibia 10.0898
rfoot -13.7848 -18.8371
rtoes 1.54401
lfemur -3.96796 1.56436 -15.9662
ltibia 21.0861
lfoot -17.1858 14.4371
ltoes 1.56894
327
root 5.4159 16.9271 -1.34012 -121.853 -86.1622 123.724
lowerback -4.56915 -0.684999 -2.53581
upperback 2.60187 -0.807196 1.09091
thorax 5.31588 -0.516625 2.48269
lowerneck -18.6947 -6.4551 -9.87138
upperneck 29.8881 -7.77237 3.08687
head 13.8141 -4.30327 1.48234
rclavicle 3.97569e-016 1.59028e-015
rhumerus -26.4005 -8.81929 -80.3744
rradius 25.1138
rwrist -4.32288
rhand -8.96177 -31.2366
rfingers 7.12502
rthumb 16.9832 -60.5141
lclavicle 3.97569e-016 1.59028e-015
lhumerus -26.7119 9.34535 88.6465
lradius 24.1538
lwrist 5.71912
lhand -19.1176 -12.7667
lfingers 7.12502
lthumb 7.19166 17.0911
rfemur 1.82903 -3.49233 12.1851
rtibia 9.67578
rfoot -13.4484 -18.843
rtoes 1.35273
lfemur -4.19625 1.87933 -15.9116
ltibia 21.7214
lfoot -17.4238 14.1054
ltoes 1.723
328
root 5.41058 16.9213 -1.30598 -124.087 -86.1889 125.915
lowerback -4.4865 -0.628395 -2.37333
upperback 2.59669 -0.746844 1.13168
thorax 5.25732 -0.481059 2.43979
lowerneck -18.6116 -6.27505 -9.44244
upperneck 29.9007 -7.54362 2.72198
head 13.7428 -4.2092 1.31201
rclavicle 8.44835e-016 1.82882e-014
rhumerus -26.4411 -9.3118 -80.1185
rradius 25.0717
rwrist -3.84059
rhand -8.71552 -31.5957
rfingers 7.12502
rthumb 17.2203 -60.8527
lclavicle 8.44835e-016 1.82882e-014
lhumerus -26.873 9.21925 88.5971
lradius 24.1125
lwrist 5.61153
lhand -19.2446 -12.6264
lfingers 7.12502
lthumb 7.06909 17.2356
rfemur 1.93115 -3.36286 12.1467
rtibia 9.55283
rfoot -13.2665 -18.8305
rtoes 1.23956
lfemur -4.26762 2.16153 -15.9075
ltibia 21.9871
lfoot -17.504 13.9838
ltoes 1.27216
329
root 5.56323 16.9546 -1.32411 -149.286 -86.5883 151.708
lowerback -2.61143 -0.313475 -1.72763
upperback 1.90095 -0.41588 1.73943
thorax 3.44728 -0.276925 2.7393
lowerneck -18.457 -6.04152 -9.13848
upperneck 29.9646 -7.27537 2.55039
head 13.6925 -4.08992 1.24717
rclavicle -1.23743e-014 4.77083e-015
rhumerus -26.6477 -9.78437 -79.8762
rradius 25.1517
rwrist -3.57542
rhand -8.48824 -31.6669
rfingers 7.12502
rthumb 17.439 -60.9046
lclavicle -1.23743e-014 4.77083e-015
lhumerus -27.1248 8.99596 88.5603
lradius 24.0275
lwrist 5.62125
lhand -19.6347 -12.5938
lfingers 7.12502
lthumb 6.69246 17.2804
rfemur 0.559269 -2.62183 14.6938
rtibia 9.49376
rfoot -13.2706 -18.7027
rtoes 4.88386
lfemur -5.8189 2.59309 -14.0733
ltibia 22.2371
lfoot -16.7795 14.4949
ltoes 1.1027
330
root 5.42303 16.9279 -1.2318 -124.827 -85.7434 126.662
lowerback -4.26562 -0.608532 -2.63101
upperback 2.64667 -0.707385 1.09973
thorax 5.18487 -0.47003 2.55647
lowerneck -18.5626 -5.80184 -9.04888
upperneck 29.9379 -6.94845 2.59453
head 13.6766 -3.92926 1.3076
rclavicle 5.51627e-015 -3.97569e-015
rhumerus -26.4563 -9.95802 -79.721
rradius 25.1583
rwrist -3.66552
rhand -8.43024 -31.2556
rfingers 7.12502
rthumb 17.4948 -60.4884
lclavicle 5.51627e-015 -3.97569e-015
lhumerus -26.9556 8.97895 88.5288
lradius 23.9646
lwrist 5.60157
lhand -19.744 -12.5257
lfingers 7.12502
lthumb 6.58697 17.3519
rfemur 1.82602 -3.03939 11.5297
rtibia 9.48915
rfoot -13.1673 -19.0216
rtoes 0.889961
lfemur -4.59297 2.58051 -16.5298
ltibia 22.3908
lfoot -17.4702 14.028
ltoes 0.324121
331
root 5.43593 16.9307 -1.19634 -125.81 -85.658 127.655
lowerback -4.20046 -0.634572 -2.67077
upperback 2.78152 -0.74351 1.11638
thorax 5.29236 -0.493931 2.59309
lowerneck -18.782 -5.53179 -8.79961
upperneck 29.9544 -6.56101 2.46447
head 13.685 -3.74644 1.28038
rclavicle -1.98785e-016 0
rhumerus -26.1852 -9.86706 -79.7486
rradius 25.15
rwrist -3.9246
rhand -8.47601 -31.6313
rfingers 7.12502
rthumb 17.4508 -60.868
lclavicle -1.98785e-016 0
lhumerus -26.8062 9.25349 88.3078
lradius 24.0144
lwrist 5.02706
lhand -19.3779 -12.2624
lfingers 7.12502
lthumb 6.94034 17.6038
rfemur 1.78106 -2.91771 11.4381
rtibia 9.39782
rfoot -13.0068 -19.1714
rtoes 0.127966
lfemur -4.79065 2.76988 -16.6573
ltibia 22.6323
lfoot -17.5094 13.9497
ltoes 0.389496
332
root 5.44546 16.9314 -1.15874 -128.549 -85.6514 130.437
lowerback -3.98741 -0.614608 -2.58286
upperback 2.7552 -0.72999 1.15451
thorax 5.1413 -0.482501 2.5859
lowerneck -19.0143 -5.19098 -8.35882
upperneck 30.2125 -6.10201 2.16117
head 13.7817 -3.54313 1.16285
rclavicle 5.36719e-015 3.97569e-015
rhumerus -26.1134 -9.76291 -79.8345
rradius 25.1884
rwrist -4.05015
rhand -8.49822 -32.389
rfingers 7.12502
rthumb 17.4294 -61.6276
lclavicle 5.36719e-015 3.97569e-015
lhumerus -26.7929 9.43983 88.0637
lradius 23.8276
lwrist 4.49689
lhand -19.1589 -12.43
lfingers 7.12502
lthumb 7.15175 17.4291
rfemur 1.5687 -2.73881 11.4798
rtibia 9.55646
rfoot -12.9017 -19.2322
rtoes -0.417311
lfemur -4.89954 2.88282 -16.6318
ltibia 22.6751
lfoot -17.5808 13.9753
ltoes 0.688401
333
root 5.45124 16.9258 -1.11677 -132.667 -85.6786 134.592
lowerback -3.71351 -0.545002 -2.38515
upperback 2.69027 -0.658888 1.22635
thorax 4.91043 -0.437822 2.55692
lowerneck -19.1779 -4.86111 -8.08032
upperneck 30.433 -5.68498 2.08382
head 13.8694 -3.34606 1.15636
rclavicle 1.19271e-015 1.03368e-014
rhumerus -26.1965 -9.77191 -79.8256
rradius 25.2901
rwrist -4.04662
rhand -8.50022 -32.4234
rfingers 7.12502
rthumb 17.4275 -61.6622
lclavicle 1.19271e-015 1.03368e-014
lhumerus -26.7719 9.3715 87.9847
lradius 23.5241
lwrist 4.37889
lhand -19.413 -12.8601
lfingers 7.12502
lthumb 6.90651 17.0072
rfemur 1.5507 -2.50923 11.593
rtibia 9.3603
rfoot -12.6763 -19.2437
rtoes -0.608061
lfemur -5.1265 3.08979 -16.5062
ltibia 23.0539
lfoot -17.8861 13.8257
ltoes 1.33716
334
root 5.46167 16.9216 -1.07001 -138.098 -85.7827 140.077
lowerback -3.38028 -0.515661 -2.00417
upperback 2.62204 -0.653117 1.33144
thorax 4.64487 -0.420392 2.45389
lowerneck -19.4555 -4.52819 -7.66935
upperneck 30.7686 -5.21129 1.72397
head 14.0174 -3.15035 1.02133
rclavicle 3.37934e-015 3.18055e-015
rhumerus -26.3816 -9.53953 -79.8409
rradius 25.4098
rwrist -4.37139
rhand -8.54636 -31.9725
rfingers 7.12502
rthumb 17.3831 -61.2152
lclavicle 3.37934e-015 3.18055e-015
lhumerus -26.9157 9.39127 87.8853
lradius 23.6439
lwrist 4.43497
lhand -19.692 -12.6728
lfingers 7.12502
lthumb 6.63716 17.2032
rfemur 1.58862 -2.29018 11.8683
rtibia 9.02423
rfoot -12.5259 -19.2295
rtoes 0.033079
lfemur -5.42128 3.32424 -16.2426
ltibia 23.4887
lfoot -18.1322 13.6789
ltoes 1.75159
335
root 5.47329 16.9209 -1.02372 -142.971 -85.8461 145.054
lowerback -3.24026 -0.505942 -1.71845
upperback 2.65166 -0.663404 1.42391
thorax 4.59389 -0.418433 2.38895
lowerneck -19.9101 -4.20026 -7.19953
upperneck 31.0353 -4.74682 1.39384
head 14.1788 -2.94162 0.883867
rclavicle -5.36719e-015 -3.18055e-015
rhumerus -26.4114 -9.12053 -79.9477
rradius 25.5654
rwrist -4.97753
rhand -8.61269 -31.714
rfingers 7.12502
rthumb 17.3192 -60.9623
lclavicle -5.36719e-015 -3.18055e-015
lhumerus -26.8583 9.54817 87.7227
lradius 23.7806
lwrist 4.19939
lhand -19.6979 -12.4256
lfingers 7.12502
lthumb 6.63142 17.4506
rfemur 1.58365 -2.10844 12.0965
rtibia 8.65503
rfoot -12.3054 -19.3176
rtoes 0.380864
lfemur -5.77275 3.57449 -16.0353
ltibia 23.8858
lfoot -18.2222 13.6171
ltoes 1.49048
336
root 5.47206 16.9182 -0.979268 -145.678 -85.806 147.801
lowerback -3.37066 -0.439815 -1.63855
upperback 2.79845 -0.579344 1.405
thorax 4.81534 -0.378315 2.32987
lowerneck -20.1166 -3.84358 -6.719
upperneck 31.1156 -4.32518 1.25701
head 14.2156 -2.72128 0.821544
rclavicle -3.18055e-015 4.77083e-015
rhumerus -26.3476 -9.04461 -80.1098
rradius 25.8368
rwrist -5.0249
rhand -8.56573 -32.1177
rfingers 7.12502
rthumb 17.3644 -61.362
lclavicle -3.18055e-015 4.77083e-015
lhumerus -26.5265 9.4494 87.5513
lradius 23.5121
lwrist 3.70801
lhand -19.8156 -13.0041
lfingers 7.12502
lthumb 6.5178 16.8756
rfemur 1.76641 -1.94971 12.0798
rtibia 8.12421
rfoot -11.871 -19.4681
rtoes -0.311905
lfemur -5.99838 3.87736 -16.0314
ltibia 24.296
lfoot -18.3663 13.4141
ltoes 1.38914
337
root 5.44727 16.9147 -0.923349 -143.186 -85.5289 145.214
lowerback -3.57147 -0.419413 -1.85178
upperback 2.9341 -0.528788 1.21303
thorax 5.06918 -0.361069 2.25366
lowerneck -20.0466 -3.43717 -6.36765
upperneck 31.147 -3.86286 1.26167
head 14.1788 -2.48337 0.850047
rclavicle -1.67973e-014 7.15625e-015
rhumerus -26.4283 -9.08858 -80.227
rradius 25.978
rwrist -4.78182
rhand -8.3739 -32.4587
rfingers 7.12502
rthumb 17.549 -61.6867
lclavicle -1.67973e-014 7.15625e-015
lhumerus -26.413 9.22762 87.3651
lradius 23.3279
lwrist 3.63054
lhand -19.892 -13.4823
lfingers 7.12502
lthumb 6.44407 16.3996
rfemur 2.18083 -1.80573 11.3695
rtibia 7.5896
rfoot -11.4634 -19.5754
rtoes -1.28437
lfemur -5.93334 4.12705 -16.6139
ltibia 24.6578
lfoot -18.7272 13.2256
ltoes 1.50711
